<svg id="visual" viewBox="0 0 900 600" width="900" height="600" xmlns="http://www.w3.org/2000/svg" xmlns:xlink="http://www.w3.org/1999/xlink" version="1.1"><rect x="0" y="0" width="900" height="600" fill="#001220"></rect><defs><linearGradient id="grad1_0" x1="33.3%" y1="0%" x2="100%" y2="100%"><stop offset="20%" stop-color="#001220" stop-opacity="1"></stop><stop offset="80%" stop-color="#001220" stop-opacity="1"></stop></linearGradient></defs><defs><linearGradient id="grad2_0" x1="0%" y1="0%" x2="66.7%" y2="100%"><stop offset="20%" stop-color="#001220" stop-opacity="1"></stop><stop offset="80%" stop-color="#001220" stop-opacity="1"></stop></linearGradient></defs><g transform="translate(900, 0)"><path d="M0 405.6C-44.1 399.2 -88.1 392.7 -120.2 370C-152.3 347.2 -172.3 308.1 -208.7 287.2C-245 266.3 -297.6 263.5 -328.2 238.4C-358.8 213.3 -367.4 165.8 -376.6 122.4C-385.9 78.9 -395.7 39.5 -405.6 0L0 0Z" fill="#36fd45"></path></g><g transform="translate(0, 600)"><path d="M0 -405.6C42.4 -399.4 84.8 -393.1 123 -378.5C161.1 -363.9 195 -341 231 -317.9C267 -294.9 305 -271.7 328.2 -238.4C351.3 -205.1 359.5 -161.6 370 -120.2C380.4 -78.8 393 -39.4 405.6 0L0 0Z" fill="#36fd45"></path></g></svg>