<svg id="visual" viewBox="0 0 900 600" width="900" height="600" xmlns="http://www.w3.org/2000/svg" xmlns:xlink="http://www.w3.org/1999/xlink" version="1.1"><rect x="0" y="0" width="900" height="600" fill="#001220"></rect><defs><linearGradient id="grad1_0" x1="33.3%" y1="0%" x2="100%" y2="100%"><stop offset="20%" stop-color="#001220" stop-opacity="1"></stop><stop offset="80%" stop-color="#001220" stop-opacity="1"></stop></linearGradient></defs><defs><linearGradient id="grad2_0" x1="0%" y1="0%" x2="66.7%" y2="100%"><stop offset="20%" stop-color="#001220" stop-opacity="1"></stop><stop offset="80%" stop-color="#001220" stop-opacity="1"></stop></linearGradient></defs><g transform="translate(900, 0)"><path d="M0 405.6C-40.8 392.5 -81.5 379.3 -117.7 362.4C-154 345.4 -185.7 324.6 -221.6 305C-257.5 285.4 -297.6 267.1 -326.8 237.5C-356.1 207.8 -374.5 166.8 -385.8 125.3C-397.1 83.9 -401.4 41.9 -405.6 0L0 0Z" fill="#36fd45"></path></g><g transform="translate(0, 600)"><path d="M0 -405.6C41.9 -399.6 83.7 -393.6 123.6 -380.4C163.5 -367.3 201.3 -347 233.4 -321.2C265.4 -295.3 291.5 -263.8 317.9 -231C344.4 -198.2 371.1 -164.1 385.8 -125.3C400.4 -86.6 403 -43.3 405.6 0L0 0Z" fill="#36fd45"></path></g></svg>