<svg id="visual" viewBox="0 0 900 600" width="900" height="600" xmlns="http://www.w3.org/2000/svg" xmlns:xlink="http://www.w3.org/1999/xlink" version="1.1"><rect x="0" y="0" width="900" height="600" fill="#001220"></rect><defs><linearGradient id="grad1_0" x1="33.3%" y1="0%" x2="100%" y2="100%"><stop offset="20%" stop-color="#001220" stop-opacity="1"></stop><stop offset="80%" stop-color="#001220" stop-opacity="1"></stop></linearGradient></defs><defs><linearGradient id="grad2_0" x1="0%" y1="0%" x2="66.7%" y2="100%"><stop offset="20%" stop-color="#001220" stop-opacity="1"></stop><stop offset="80%" stop-color="#001220" stop-opacity="1"></stop></linearGradient></defs><g transform="translate(900, 0)"><path d="M0 405.6C-41.3 388.9 -82.5 372.3 -113.4 349C-144.3 325.8 -164.8 296.1 -204 280.7C-243.1 265.4 -300.8 264.5 -328.2 238.4C-355.5 212.3 -352.6 161.1 -360.5 117.1C-368.3 73.2 -387 36.6 -405.6 0L0 0Z" fill="#36fd45"></path></g><g transform="translate(0, 600)"><path d="M0 -405.6C45.7 -406.6 91.5 -407.6 125.3 -385.8C159.2 -363.9 181.3 -319.3 211 -290.4C240.7 -261.6 278.2 -248.7 307.4 -223.4C336.7 -198.1 357.8 -160.4 372.8 -121.1C387.8 -81.9 396.7 -40.9 405.6 0L0 0Z" fill="#36fd45"></path></g></svg>